<!DOCTYPE svg PUBLIC "-//W3C//DTD SVG 20010904//EN" "http://www.w3.org/TR/2001/REC-SVG-20010904/DTD/svg10.dtd">
<svg version="1.0" xmlns="http://www.w3.org/2000/svg" width="700px" height="450px" viewBox="0 0 7000 4500" preserveAspectRatio="xMidYMid meet">
<g id="layer1" fill="#fefefe" stroke="none">
 <path d="M0 2250 l0 -2250 3500 0 3500 0 0 2250 0 2250 -3500 0 -3500 0 0 -2250z m4084 1984 c869 -69 1627 -287 2101 -602 119 -79 304 -259 354 -345 66 -113 85 -179 85 -307 1 -198 -52 -318 -215 -482 l-97 -96 -51 -169 c-93 -301 -318 -976 -356 -1066 -77 -183 -164 -282 -315 -361 -87 -45 -148 -65 -249 -80 l-83 -12 -21 -54 c-27 -74 -94 -138 -190 -184 -145 -68 -252 -81 -397 -45 -47 11 -120 23 -162 26 l-76 6 -81 -77 c-110 -105 -147 -120 -286 -121 l-110 0 -108 48 c-59 27 -123 51 -142 54 -23 4 -77 -7 -172 -35 -348 -103 -502 -93 -599 39 -19 26 -40 49 -47 51 -6 3 -52 -4 -102 -14 -49 -10 -144 -20 -210 -22 -67 -3 -95 -1 -65 2 62 8 71 24 17 33 -19 3 -48 14 -63 23 -15 10 -60 22 -102 28 -43 5 -95 19 -123 33 -56 29 -81 31 -99 10 -15 -18 4 -44 55 -77 27 -18 28 -19 5 -13 -63 17 -126 74 -170 151 l-25 44 -110 5 c-174 6 -317 57 -419 146 -75 66 -176 227 -217 347 -10 30 -37 74 -61 101 -130 146 -277 501 -423 1026 l-48 170 -78 73 c-97 91 -164 189 -202 301 -104 301 19 572 374 823 441 311 1214 541 2080 618 355 32 838 34 1203 4z m-1807 -3830 c-3 -3 -12 -4 -19 -1 -8 3 -5 6 6 6 11 1 17 -2 13 -5z m56 -11 c-7 -2 -19 -2 -25 0 -7 3 -2 5 12 5 14 0 19 -2 13 -5z"/>
 <path d="M2515 3670 c-32 -35 -35 -110 -14 -320 34 -338 39 -393 35 -397 -2 -2 -18 56 -36 129 -18 73 -37 139 -43 146 -27 34 -27 -15 -3 -199 15 -107 31 -232 37 -279 15 -120 37 -211 56 -232 16 -17 17 -17 36 -1 11 10 30 43 43 73 14 31 41 69 62 87 l37 32 -2 108 c-3 141 -55 549 -88 683 -27 110 -60 183 -86 188 -8 1 -24 -7 -34 -18z"/>
 <path d="M1435 3530 c-9 -10 -23 -45 -31 -75 -26 -115 -26 -174 0 -390 38 -317 38 -320 6 -180 -48 207 -72 267 -99 251 -26 -17 5 -323 49 -487 70 -258 90 -348 90 -414 0 -71 29 -155 67 -197 25 -28 33 -12 33 65 0 92 16 188 32 199 7 4 28 8 46 8 46 0 72 16 72 44 0 13 -22 120 -50 238 -111 480 -130 590 -139 777 -6 134 -10 155 -26 167 -25 18 -29 18 -50 -6z"/>
 <path d="M3984 3189 c-17 -19 -19 -40 -19 -228 -1 -216 -11 -285 -46 -317 -17 -15 -20 -15 -53 5 l-35 22 -15 -23 c-39 -60 -54 -275 -23 -335 9 -17 22 -35 28 -38 25 -16 102 97 130 193 8 27 34 68 67 105 84 94 96 129 88 257 -3 58 -13 145 -22 194 -26 153 -60 209 -100 165z"/>
 <path d="M5159 3029 c-17 -18 -40 -51 -52 -73 -21 -39 -22 -54 -22 -261 0 -204 -2 -224 -23 -280 -12 -32 -22 -78 -22 -102 0 -52 -16 -63 -95 -63 -63 0 -71 -9 -61 -65 10 -51 51 -95 89 -95 100 0 171 121 191 325 3 33 17 164 31 292 29 271 31 326 10 343 -12 10 -20 7 -46 -21z"/>
 <path d="M785 2826 c-111 -118 -109 -261 10 -576 36 -96 87 -230 112 -298 25 -67 52 -127 59 -133 21 -17 57 -6 74 23 18 34 12 54 -64 187 -80 139 -99 220 -92 381 6 110 4 131 -14 178 -28 74 -26 104 10 130 18 14 31 35 36 57 16 85 -68 117 -131 51z"/>
 <path d="M2104 1865 c-10 -26 5 -78 45 -156 65 -129 132 -221 221 -307 110 -106 154 -122 350 -129 149 -5 162 -2 370 73 134 48 193 51 516 30 555 -37 547 -35 769 -165 38 -22 105 -53 150 -68 88 -30 105 -31 460 -22 161 5 176 7 283 41 122 38 162 65 162 109 0 58 -64 63 -173 13 -75 -34 -121 -39 -200 -24 l-65 12 -4 64 c-3 49 -9 69 -28 89 -28 30 -42 33 -251 45 -272 16 -412 46 -682 144 -231 84 -358 107 -582 107 -194 0 -224 -9 -313 -93 -77 -73 -137 -100 -270 -123 -113 -20 -303 -20 -371 1 -66 19 -176 120 -251 232 -55 81 -108 142 -122 142 -5 0 -11 -7 -14 -15z"/>
 <path d="M1449 1514 c-31 -38 70 -159 292 -351 187 -161 223 -180 370 -202 88 -14 190 -2 220 25 16 14 18 26 13 67 l-7 50 70 -6 c79 -6 99 1 171 60 41 34 43 37 26 50 -30 22 -115 16 -190 -14 -61 -23 -86 -27 -209 -30 -77 -2 -163 -4 -190 -5 -97 -3 -250 95 -427 274 -54 54 -104 98 -111 98 -8 0 -20 -7 -28 -16z"/>
 <path d="M1386 1001 c-22 -24 -20 -38 14 -97 39 -69 139 -158 225 -200 102 -49 187 -64 393 -66 112 -1 153 -4 112 -7 -49 -5 -65 -10 -65 -21 0 -15 84 -26 246 -32 61 -3 96 14 125 58 17 24 16 26 -10 52 l-26 27 -174 1 c-190 2 -220 7 -307 61 -50 31 -66 34 -174 44 -66 6 -134 17 -152 26 -19 8 -63 48 -99 87 -80 86 -87 90 -108 67z"/>
 <path d="M5400 939 c-48 -10 -158 -14 -305 -11 -99 2 -167 -8 -169 -23 -2 -17 150 -85 203 -92 38 -4 57 -2 76 11 21 14 24 20 14 32 -10 12 2 14 82 14 155 1 231 26 199 64 -14 18 -33 18 -100 5z"/>
 <path d="M3855 458 c-34 -19 -65 -51 -65 -68 0 -24 48 -66 105 -91 60 -26 173 -36 232 -20 49 13 99 52 89 69 -11 18 -85 34 -125 27 -48 -8 -85 7 -138 55 -44 41 -64 47 -98 28z"/>
 <path d="M3115 443 c-33 -8 -132 -72 -139 -89 -8 -21 -1 -31 36 -50 53 -28 125 -33 238 -17 102 14 140 29 125 52 -10 17 -175 98 -210 104 -16 3 -39 3 -50 0z"/>
 </g>
<g id="layer2" fill="#6a6a6a" stroke="none">
 <path d="M3171 4270 c-996 -52 -1875 -289 -2372 -640 -296 -209 -440 -435 -427 -670 10 -173 90 -332 237 -472 l79 -76 47 -169 c147 -526 293 -878 423 -1024 24 -27 51 -71 61 -101 43 -124 140 -278 226 -356 109 -100 259 -154 432 -156 57 0 103 -5 103 -9 0 -5 16 -33 35 -62 47 -71 120 -119 220 -146 113 -30 397 -31 530 -2 50 11 95 18 100 16 6 -3 26 -25 46 -51 101 -133 254 -143 602 -40 95 28 149 39 172 35 19 -3 83 -27 142 -54 l108 -48 110 0 c139 1 176 16 286 121 l81 77 76 -6 c42 -3 115 -15 162 -26 145 -36 252 -23 397 45 95 45 181 127 208 196 14 39 22 48 42 48 53 0 182 34 250 65 186 86 292 198 378 402 38 90 263 764 355 1064 l51 166 97 99 c164 167 217 286 216 484 0 128 -19 194 -85 307 -51 87 -255 286 -374 365 -475 316 -1232 533 -2101 602 -238 19 -696 27 -913 16z m-593 -647 c43 -102 94 -401 122 -726 12 -143 7 -191 -25 -205 -14 -7 -38 -41 -62 -89 -21 -43 -43 -77 -48 -76 -6 1 -15 20 -22 43 -13 43 -19 89 -78 540 -3 19 9 -14 25 -75 32 -116 43 -136 61 -118 12 12 8 67 -30 434 -19 176 -18 274 3 307 14 24 34 11 54 -35z m-1098 -119 c6 -14 10 -71 10 -128 0 -144 26 -285 171 -917 12 -53 19 -104 16 -113 -4 -11 -19 -16 -46 -16 -57 0 -80 -24 -91 -95 -6 -33 -10 -89 -11 -125 l-1 -65 -29 60 c-23 49 -29 73 -29 130 0 66 -19 155 -90 414 -27 99 -60 330 -59 411 l0 65 20 -55 c11 -30 42 -163 70 -295 28 -132 53 -247 56 -255 4 -8 5 -22 4 -32 -1 -9 3 -19 9 -23 14 -9 25 24 12 37 -6 6 -8 16 -6 22 3 7 -13 154 -35 327 -56 438 -56 439 -37 547 22 129 44 164 66 106z m2560 -368 c18 -56 40 -197 46 -306 8 -128 -4 -163 -87 -257 -37 -41 -60 -78 -72 -114 -18 -59 -75 -161 -93 -166 -14 -4 -30 37 -38 93 -6 46 8 181 25 232 l11 33 33 -21 c36 -22 57 -19 78 13 34 53 41 101 41 312 1 116 5 216 9 223 12 18 33 -1 47 -42z m1136 -424 c-14 -130 -29 -264 -32 -297 -20 -201 -79 -305 -173 -305 -36 0 -59 29 -68 84 l-6 36 55 0 c76 0 108 25 108 84 0 23 10 69 22 101 21 56 23 76 23 280 0 206 1 222 22 260 12 22 32 51 45 65 l23 25 3 -48 c2 -26 -8 -154 -22 -285z m-4281 108 c11 -34 -4 -76 -35 -99 -36 -26 -39 -58 -10 -133 18 -47 20 -68 14 -178 -7 -160 12 -242 90 -380 72 -126 80 -144 72 -174 -5 -19 -13 -26 -30 -26 -20 0 -28 14 -69 123 -25 67 -76 201 -112 297 -70 186 -101 321 -92 401 7 55 39 127 72 163 31 33 90 37 100 6z m1316 -1071 c33 -48 98 -123 144 -167 103 -100 136 -112 306 -112 232 0 366 39 471 138 89 84 119 93 313 93 224 0 351 -23 582 -107 273 -99 411 -128 698 -145 99 -6 190 -15 203 -20 28 -11 42 -46 42 -108 0 -27 6 -53 13 -59 19 -16 133 -35 176 -29 22 3 66 17 98 32 32 14 79 29 106 32 l47 6 0 -31 c0 -41 -19 -52 -150 -93 -97 -30 -118 -33 -275 -38 -354 -9 -372 -8 -460 22 -45 15 -112 46 -150 68 -222 130 -214 128 -769 165 -323 21 -382 18 -516 -30 -208 -75 -221 -78 -370 -73 -209 7 -237 19 -385 164 -70 69 -200 294 -212 369 -6 36 -5 38 11 25 10 -8 44 -54 77 -102z m-653 -311 c87 -93 260 -231 340 -270 49 -24 75 -31 115 -30 29 1 115 3 192 5 123 3 148 7 209 30 66 26 176 38 176 19 0 -5 -21 -24 -47 -43 -46 -32 -51 -34 -124 -31 -92 3 -105 -6 -95 -72 4 -27 3 -47 -3 -51 -30 -18 -138 -25 -210 -14 -146 22 -186 43 -349 186 -53 46 -125 109 -158 139 -61 52 -144 163 -144 190 0 31 35 10 98 -58z m-66 -523 c38 -40 83 -80 101 -88 18 -9 86 -20 152 -26 108 -10 124 -13 174 -44 87 -54 117 -59 307 -61 148 -1 176 -3 190 -18 16 -16 16 -19 1 -42 -27 -41 -100 -52 -206 -30 -22 5 -22 6 -6 18 40 29 7 36 -180 36 -213 0 -295 13 -400 64 -38 19 -95 57 -126 85 -61 54 -117 147 -106 175 9 22 17 17 99 -69z m3998 6 c0 -17 -36 -23 -185 -30 -83 -4 -156 -11 -163 -15 -21 -13 -3 -26 36 -26 32 -1 34 -2 18 -12 -27 -15 -102 -4 -175 28 -58 25 -61 28 -40 36 13 5 65 8 114 7 138 -4 255 0 305 10 61 12 90 13 90 2z m-3271 -436 c28 -14 80 -28 124 -34 75 -9 132 -33 104 -44 -16 -6 -189 19 -234 34 -36 11 -83 46 -83 60 0 16 40 10 89 -16z m1741 -80 c28 -25 58 -46 68 -46 9 -1 47 -2 84 -3 83 -1 104 -17 57 -42 -51 -26 -165 -30 -234 -9 -118 37 -155 87 -93 125 47 29 61 26 118 -25z m-682 -29 c45 -22 82 -43 82 -47 0 -10 -167 -33 -231 -31 -62 1 -142 28 -136 46 5 16 77 64 112 75 42 13 78 4 173 -43z"/>
 </g>

</svg>